<?xml version="1.0" standalone="no"?>
<!DOCTYPE svg PUBLIC "-//W3C//DTD SVG 20010904//EN"
 "http://www.w3.org/TR/2001/REC-SVG-20010904/DTD/svg10.dtd">
<svg version="1.0" xmlns="http://www.w3.org/2000/svg"
 width="500.000000pt" height="500.000000pt" viewBox="0 0 500.000000 500.000000"
 preserveAspectRatio="xMidYMid meet">

<g transform="translate(0.000000,500.000000) scale(0.100000,-0.100000)"
fill="#d10125" stroke="none">
<path d="M742 4155 c-123 -27 -221 -106 -280 -223 l-37 -76 0 -1356 0 -1356
37 -76 c60 -119 157 -196 284 -223 103 -22 3405 -22 3508 0 127 27 224 104
284 223 l37 76 0 1356 0 1356 -38 76 c-60 123 -154 196 -286 224 -97 20 -3414
19 -3509 -1z m936 -933 l823 -514 812 508 c447 279 822 514 835 522 l22 14 0
-208 0 -209 -835 -522 -834 -521 -835 521 -836 522 0 208 c0 164 3 207 13 201
6 -4 382 -239 835 -522z"/>
</g>
</svg>
