<?xml version="1.0" standalone="no"?>
<!DOCTYPE svg PUBLIC "-//W3C//DTD SVG 20010904//EN"
 "http://www.w3.org/TR/2001/REC-SVG-20010904/DTD/svg10.dtd">
<svg version="1.0" xmlns="http://www.w3.org/2000/svg"
 width="500.000000pt" height="500.000000pt" viewBox="0 0 500.000000 500.000000"
 preserveAspectRatio="xMidYMid meet">

<g transform="translate(0.000000,500.000000) scale(0.100000,-0.100000)"
fill="#d10125" stroke="none">
<path d="M2300 4350 c-285 -71 -508 -284 -600 -575 -34 -107 -39 -301 -11
-418 36 -153 104 -278 210 -391 100 -104 208 -171 361 -222 78 -26 97 -28 240
-28 148 0 160 2 250 32 295 98 505 333 565 631 24 115 16 297 -15 396 -25 79
-85 203 -124 255 -82 110 -220 221 -341 275 -149 66 -374 85 -535 45z"/>
<path d="M2200 2065 c-291 -37 -611 -115 -854 -211 -384 -152 -619 -342 -697
-564 -21 -60 -23 -83 -23 -285 -1 -196 1 -224 18 -258 24 -49 90 -105 135
-114 47 -10 3395 -10 3442 0 46 9 111 65 134 114 23 48 32 293 16 433 -9 79
-18 110 -52 179 -157 317 -696 580 -1424 693 -172 26 -531 33 -695 13z"/>
</g>
</svg>
