<?xml version="1.0" standalone="no"?>
<!DOCTYPE svg PUBLIC "-//W3C//DTD SVG 20010904//EN"
 "http://www.w3.org/TR/2001/REC-SVG-20010904/DTD/svg10.dtd">
<svg version="1.0" xmlns="http://www.w3.org/2000/svg"
 width="500.000000pt" height="500.000000pt" viewBox="0 0 500.000000 500.000000"
 preserveAspectRatio="xMidYMid meet">

<g transform="translate(0.000000,500.000000) scale(0.100000,-0.100000)"
fill="#d10125" stroke="none">
<path d="M2270 4566 c-323 -58 -574 -188 -800 -415 -262 -263 -400 -571 -426
-951 -38 -553 405 -1462 1211 -2485 119 -151 158 -179 245 -180 93 0 125 27
288 237 794 1024 1205 1882 1168 2433 -27 386 -183 720 -460 982 -191 181
-435 308 -706 368 -102 23 -417 29 -520 11z m360 -938 c179 -43 341 -213 379
-396 55 -266 -106 -529 -371 -609 -83 -24 -218 -20 -299 9 -93 34 -146 68
-211 133 -63 64 -120 168 -137 253 -48 234 68 468 286 573 115 56 226 68 353
37z"/>
</g>
</svg>
