<?xml version="1.0" standalone="no"?>
<!DOCTYPE svg PUBLIC "-//W3C//DTD SVG 20010904//EN"
 "http://www.w3.org/TR/2001/REC-SVG-20010904/DTD/svg10.dtd">
<svg version="1.0" xmlns="http://www.w3.org/2000/svg"
 width="500.000000pt" height="500.000000pt" viewBox="0 0 500.000000 500.000000"
 preserveAspectRatio="xMidYMid meet">

<g transform="translate(0.000000,500.000000) scale(0.100000,-0.100000)"
fill="#d10125" stroke="none">
<path d="M745 4354 c-44 -22 -85 -64 -101 -101 -17 -39 -19 -261 -4 -414 92
-930 541 -1792 1240 -2378 549 -461 1237 -749 1954 -820 140 -14 376 -14 413
0 38 14 80 56 106 104 22 39 22 49 22 455 0 406 0 416 -22 455 -51 96 -90 111
-329 125 -209 12 -318 30 -505 84 -224 64 -204 73 -515 -236 l-252 -250 -108
62 c-258 148 -458 302 -680 524 -226 226 -370 413 -524 680 l-62 108 249 252
c309 311 301 293 239 510 -55 190 -74 307 -86 510 -14 238 -29 279 -122 327
-35 18 -64 19 -460 19 -363 0 -427 -2 -453 -16z"/>
</g>
</svg>
